<?xml version="1.0" encoding="UTF-8"?>
<svg id="Layer_1" data-name="Layer 1" xmlns="http://www.w3.org/2000/svg" viewBox="0 0 207.75 162.91">
  <defs>
    <style>
      .cls-1 {
        fill: #1e38a6;
      }

      .cls-2 {
        fill: #f9f8e0;
      }

      .cls-3 {
        fill: #ffbc4a;
      }

      .cls-4 {
        fill: #d92400;
      }

      .cls-5 {
        fill: #4ead4a;
      }
    </style>
  </defs>
  <g>
    <path class="cls-2" d="m98.13,63.16l4.29-1.5c.23-.08.48,0,.63.18l2.79,3.52c.33.41,1.01.18.99-.35l-.14-4.45c0-.23.14-.45.37-.53l4.29-1.5c.51-.18.48-.88-.03-1.03l-4.38-1.25c-.23-.07-.39-.27-.4-.5l-.14-4.45c-.02-.52-.71-.72-1.01-.29l-2.57,3.68c-.14.19-.38.28-.61.21l-4.38-1.25c-.52-.15-.92.44-.59.85l2.79,3.52c.15.19.15.44.02.64l-2.57,3.68c-.3.43.14.99.64.81Z"/>
    <path class="cls-1" d="m89.98,45.64c-.64.68-1.22,1.39-1.73,2.13-.22.33-.66.43-1.01.22l-6.16-3.78-7.81-4.78-4.84-2.98-2.84-1.75c-.35-.22-.46-.67-.23-1.01,1.57-2.36,3.4-4.61,5.47-6.71.29-.29.77-.29,1.07,0l2.36,2.31,4.05,3.96,6.52,6.37,5.15,5.03c.28.28.28.72,0,1.01Z"/>
    <path class="cls-4" d="m127.62,19.8c.35.21.46.67.24,1.02l-1.79,2.76-3.05,4.74-4.88,7.62-4.27,6.63-2.58,4-.91,1.44c-.21.33-.65.43-1,.24s-.69-.35-1.05-.51-.55-.54-.42-.9l.57-1.61,1.61-4.47,2.64-7.39,3.03-8.49,1.89-5.28,1.12-3.09c.14-.38.57-.59.96-.44,2.72.99,5.37,2.22,7.9,3.73Z"/>
    <path class="cls-3" d="m98.53,45.47c-.53.21-1.04.46-1.54.73-.35.19-.78.1-1-.23l-2.2-3.41-4.27-6.63-4.88-7.62-3.05-4.74-1.79-2.76c-.22-.34-.11-.8.24-1.02,2.53-1.51,5.18-2.75,7.9-3.73.39-.14.82.06.96.44l1.12,3.09,1.89,5.28,3.03,8.49,2.64,7.39,1.37,3.81c.13.37-.06.76-.43.9Z"/>
    <path class="cls-5" d="m104.57,46.86c.31.02.6-.21.64-.52l.21-1.8.45-3.97c.05-.4-.26-.77-.67-.8-.91-.07-1.81-.07-2.72,0-.41.03-.72.4-.67.81l.46,3.97.21,1.8c.04.32.32.54.64.52.36-.03.87-.04,1.46,0Z"/>
    <path class="cls-1" d="m149.37,52.42c.05.4-.25.77-.66.81l-3.35.37-5.67.61-8.45.94c-.4.04-.75-.23-.81-.62-.21-1.5-.55-2.96-1.01-4.37-.12-.37.07-.77.45-.9l8.03-2.73,5.39-1.85,3.17-1.09c.39-.14.83.07.96.46.92,2.74,1.58,5.53,1.94,8.37Z"/>
    <path class="cls-5" d="m92.69,55.08c-.1.37-.19.75-.26,1.13s-.42.65-.81.61l-1.73-.19-4.82-.53-7.18-.78c-.41-.04-.72-.42-.66-.82.21-1.48.54-2.91.99-4.3.13-.39.57-.59.96-.46l6.83,2.33,4.57,1.57,1.65.56c.37.13.57.51.46.89Z"/>
    <path class="cls-5" d="m70.83,89.35c-2.07-2.09-3.9-4.35-5.47-6.71-.23-.34-.12-.8.23-1.01l2.83-1.75,4.86-2.96,7.81-4.78,6.16-3.78c.34-.21.78-.11,1.01.22.51.74,1.08,1.45,1.73,2.13.27.29.28.73,0,1.01l-5.15,5.03-6.52,6.37-4.05,3.96-2.36,2.3c-.29.29-.78.28-1.07,0Z"/>
    <path class="cls-1" d="m107.75,17.49c.41.04.71.4.66.81l-.54,4.84-.95,8.23c-.04.39-.39.66-.79.63-.76-.06-1.53-.09-2.3-.09s-1.53.03-2.28.1c-.4.04-.76-.24-.81-.63l-.96-8.24-.54-4.83c-.04-.4.25-.77.66-.81,1.29-.13,2.6-.18,3.94-.18s2.63.06,3.92.18Z"/>
    <path class="cls-4" d="m133.96,38.79c.23.34.12.8-.23,1.01l-7.16,4.39-6.77,4.16-3.48,2.16c-.34.21-.78.11-1-.21-.33-.47-.68-.9-1.07-1.32-.26-.29-.26-.72.02-.99l2.91-2.85,5.66-5.53,5.98-5.84c.29-.29.78-.29,1.07,0,1.55,1.58,2.9,3.25,4.08,5.02Z"/>
    <path class="cls-3" d="m122.49,55.36c.06.4-.24.77-.66.82l-4.06.45-1.74.19c-.39.04-.74-.23-.81-.61s-.16-.74-.26-1.11.09-.76.46-.89l1.66-.57,3.85-1.32c.39-.14.83.07.96.46.26.85.47,1.71.61,2.58Z"/>
    <path class="cls-1" d="m125.43,93.14c-2.23,1.32-4.59,2.45-7.08,3.34-.39.14-.82-.07-.96-.45l-1.64-4.57-3.03-8.51-2.4-6.71c-.13-.37.06-.76.43-.91.86-.33,1.7-.72,2.52-1.19.35-.2.79-.11,1.01.23l3.87,6.02,4.9,7.62,2.64,4.12c.22.34.11.8-.24,1.01Z"/>
    <path class="cls-5" d="m133.98,77.54c-1.18,1.77-2.54,3.45-4.1,5.03-.29.29-.77.29-1.07,0l-11.64-11.37-2.91-2.85c-.28-.27-.28-.71-.02-.99.38-.42.74-.86,1.07-1.32.23-.32.66-.42,1-.22l3.49,2.15,6.77,4.16,7.17,4.39c.35.22.46.67.23,1.01Z"/>
    <path class="cls-3" d="m92.69,61.24c.1.37-.09.76-.46.89l-1.64.56-4.57,1.57-7.55,2.58-8.71,2.96h0s-4.69,1.61-4.69,1.61c-.39.13-.83-.07-.96-.45-.81-2.4-1.39-4.9-1.73-7.49-.05-.4.25-.77.66-.82l4.93-.53,9.15-1.02,7.94-.86,4.82-.52,1.73-.19c.39-.04.74.23.81.61s.16.75.26,1.11Z"/>
    <path class="cls-3" d="m104.67,71.85c.41-.02.78.28.82.67l.45,3.98.88,7.76,1.05,8.94.63,5.56.38,3.24c.05.4-.25.77-.67.81-2.91.28-5.86.28-8.77,0-.41-.04-.71-.41-.67-.81l.38-3.25.63-5.54,1.05-8.96.88-7.75.46-3.97c.05-.4.41-.69.82-.67.62.03.99.03,1.68,0Z"/>
    <path class="cls-4" d="m99.35,68.59c.37.15.56.54.43.91l-.58,1.62-1.61,4.47-2.64,7.38-2.78,7.81c-.14.38-.57.59-.96.45-2.05-.75-4.04-1.68-5.94-2.81-.35-.21-.46-.67-.24-1.01l4.5-6.99,4.26-6.62,2.6-4,.91-1.44c.21-.33.65-.43,1-.24s.7.35,1.06.5Z"/>
    <path class="cls-4" d="m145.28,63.47c-.34,2.58-.92,5.09-1.73,7.49-.13.38-.56.59-.96.45l-4.69-1.59-8.71-2.98-7.55-2.58-4.57-1.57-1.65-.56c-.38-.13-.57-.52-.46-.89s.19-.74.26-1.11.41-.66.81-.61l1.74.19,4.82.53,7.94.86,9.15,1.02,4.93.53c.41.04.72.41.66.82Z"/>
  </g>
  <g>
    <path class="cls-2" d="m34.47,125.13c-.59.24-1.27.35-2.02.35s-1.38-.12-1.95-.38l6.63-6.68c.42-.42.47-1.1.1-1.57-.46-.58-.99-1.06-1.61-1.45-.91-.56-2-.83-3.28-.83s-2.43.29-3.46.89c-1.02.59-1.83,1.39-2.43,2.4-.59,1.01-.89,2.13-.89,3.37s.3,2.4.88,3.42c.59,1.02,1.4,1.83,2.44,2.43,1.05.6,2.25.9,3.6.9,1.06,0,2.03-.18,2.92-.55.46-.19.89-.42,1.27-.7.59-.43.67-1.28.15-1.8l-.05-.05c-.39-.4-1.02-.5-1.48-.19-.25.18-.53.32-.83.43Zm-5.65-1.5s-.08-.11-.11-.16c-.35-.64-.53-1.38-.53-2.23s.18-1.53.53-2.17.84-1.14,1.47-1.5,1.37-.54,2.21-.54,1.52.16,2.03.47c.11.07.21.14.31.22l-5.91,5.91Z"/>
    <path class="cls-2" d="m40.2,109.71v16.68c0,.74.6,1.33,1.33,1.33h0c.74,0,1.33-.6,1.33-1.33v-16.68c0-.74-.6-1.33-1.33-1.33h0c-.74,0-1.33.6-1.33,1.33Z"/>
    <path class="cls-2" d="m57.22,114.85c-.74,0-1.34.6-1.34,1.34v.28c-.4-.52-.92-.95-1.52-1.27-.77-.42-1.64-.62-2.63-.62-1.17,0-2.23.29-3.18.89-.94.59-1.69,1.4-2.24,2.41-.55,1.02-.82,2.16-.82,3.42s.27,2.39.82,3.4c.55,1.01,1.3,1.81,2.24,2.4.95.6,2.01.89,3.2.89.97,0,1.85-.2,2.62-.62.61-.32,1.11-.74,1.51-1.25v.26c0,.74.6,1.34,1.34,1.34h0c.74,0,1.34-.6,1.34-1.34v-10.19c0-.74-.6-1.34-1.34-1.34h0Zm-2.24,9.46c-.71.78-1.64,1.17-2.8,1.17-.77,0-1.45-.18-2.05-.54-.59-.36-1.06-.85-1.4-1.48-.34-.63-.51-1.36-.51-2.19s.17-1.53.51-2.16c.34-.63.8-1.12,1.39-1.48.58-.36,1.26-.54,2.04-.54s1.47.18,2.05.54,1.03.85,1.35,1.48.49,1.36.49,2.19c0,1.22-.36,2.23-1.07,3.01Z"/>
    <path class="cls-2" d="m72.34,117.32c-.48-.88-1.14-1.55-1.98-2.03-.85-.48-1.85-.71-3-.71s-2.13.24-2.99.72c-.85.49-1.52,1.17-1.99,2.03-.48.86-.72,1.87-.72,3.02v6.04c0,.74.6,1.33,1.33,1.33h0c.74,0,1.33-.6,1.33-1.33v-5.85c0-1.02.27-1.85.79-2.47.52-.62,1.27-.93,2.24-.93s1.74.31,2.25.93c.52.62.77,1.45.77,2.47v5.85c0,.74.6,1.33,1.33,1.33h.01c.74,0,1.33-.6,1.33-1.33v-6.04c0-1.15-.24-2.16-.72-3.03Z"/>
    <path class="cls-2" d="m87.53,116.68c-.51-.57-.89-1.07-1.15-1.5-.26-.42-.39-.95-.39-1.58,0-.7.25-1.27.75-1.72.51-.45,1.14-.68,1.89-.68.69,0,1.27.17,1.75.51.2.15.4.32.59.5.45.44,1.16.48,1.63.06l.19-.17c.49-.43.56-1.21.1-1.68-.15-.15-.31-.3-.48-.44-.48-.42-1.04-.75-1.67-.99-.63-.24-1.33-.36-2.11-.36-1.02,0-1.94.22-2.74.66s-1.43,1.04-1.89,1.79c-.46.76-.68,1.61-.68,2.57,0,.81.16,1.55.49,2.24.06.13.14.26.22.4.31.52.12,1.18-.37,1.54-.53.4-.98.86-1.33,1.37-.62.91-.93,1.94-.93,3.09s.26,2.08.8,2.94c.53.86,1.26,1.54,2.21,2.03.94.48,2.05.72,3.31.72.79,0,1.54-.1,2.25-.32.71-.22,1.36-.51,1.96-.89.33-.21.62-.43.87-.68l1.15,1.24c.22.24.54.38.87.38h.05c1.03,0,1.57-1.22.88-1.98l-8.21-9.06Zm2.63,8.2c-.64.38-1.42.58-2.34.58-.73,0-1.39-.13-1.95-.39-.57-.27-1.01-.63-1.33-1.11-.31-.48-.47-1.06-.47-1.74,0-.85.19-1.56.58-2.14.12-.18.26-.35.41-.51.47-.49,1.26-.47,1.73.02l4.25,4.59c-.25.25-.54.48-.88.69Z"/>
    <path class="cls-2" d="m115.12,120.35v13.98c0,.74-.6,1.33-1.33,1.33h0c-.74,0-1.33-.6-1.33-1.33v-13.79c0-1.02-.26-1.85-.77-2.47-.51-.62-1.27-.93-2.26-.93s-1.72.31-2.24.93c-.52.62-.78,1.45-.78,2.47v5.85c0,.74-.6,1.33-1.33,1.33h0c-.74,0-1.33-.6-1.33-1.33v-6.04c0-1.15.24-2.16.71-3.02.48-.86,1.15-1.54,2-2.03.86-.48,1.85-.72,2.98-.72s2.16.23,3,.71c.85.48,1.51,1.15,1.99,2.03.47.87.71,1.88.71,3.03Z"/>
    <path class="cls-2" d="m129.31,116.53l-4.82,10.5c-.19.42-.61.69-1.08.69h-.05c-.46,0-.88-.27-1.08-.69l-4.8-10.5c-.36-.79.21-1.68,1.08-1.68h.33c.47,0,.9.28,1.09.71l3.26,7.52c.08.19.34.19.42,0l3.26-7.52c.19-.43.62-.71,1.09-.71h.23c.86,0,1.44.89,1.08,1.68Z"/>
    <path class="cls-2" d="m132.05,116.18v10.22c0,.73.59,1.33,1.33,1.33h0c.73,0,1.33-.59,1.33-1.33v-10.22c0-.73-.59-1.33-1.33-1.33h0c-.73,0-1.33.59-1.33,1.33Zm2.5-6.64c-.3-.33-.69-.49-1.18-.49s-.85.16-1.16.49c-.3.32-.46.72-.46,1.18s.16.86.46,1.18c.31.31.69.47,1.16.47s.88-.16,1.18-.47c.29-.32.44-.71.44-1.18s-.15-.86-.44-1.18Z"/>
    <path class="cls-2" d="m145.36,120.89c-.52-.28-1.07-.51-1.63-.68-.57-.18-1.11-.34-1.64-.49-.52-.15-.95-.34-1.28-.55-.33-.22-.5-.54-.5-.95,0-.38.18-.67.54-.89.36-.22.87-.32,1.51-.32s1.23.12,1.75.36c.21.1.41.22.6.37.46.35,1.11.3,1.53-.11l.07-.07c.5-.5.47-1.32-.08-1.77-.33-.27-.69-.49-1.08-.67-.8-.36-1.7-.54-2.7-.54s-1.81.15-2.5.47c-.7.31-1.23.76-1.61,1.33-.38.58-.57,1.26-.57,2.06s.17,1.4.49,1.87c.32.48.75.86,1.27,1.14.52.28,1.07.5,1.65.66.57.16,1.12.32,1.64.48.52.17.95.37,1.27.61.33.25.49.58.49,1.01s-.19.77-.57,1c-.38.24-.93.35-1.65.35s-1.43-.13-2.03-.4c-.3-.13-.59-.3-.85-.51-.47-.37-1.16-.28-1.59.15h0c-.52.52-.44,1.36.15,1.81.14.1.28.2.42.29.55.35,1.15.62,1.81.81s1.34.28,2.04.28c1.48,0,2.65-.36,3.52-1.08.88-.71,1.31-1.69,1.31-2.91,0-.79-.16-1.44-.5-1.93-.33-.5-.76-.89-1.28-1.18Z"/>
    <path class="cls-2" d="m149.76,116.18v10.22c0,.73.59,1.33,1.33,1.33h0c.73,0,1.33-.59,1.33-1.33v-10.22c0-.73-.59-1.33-1.33-1.33h0c-.73,0-1.33.59-1.33,1.33Zm2.5-6.64c-.3-.33-.69-.49-1.18-.49-.46,0-.85.16-1.16.49-.3.32-.46.72-.46,1.18s.16.86.46,1.18c.31.31.7.47,1.16.47.49,0,.88-.16,1.18-.47.3-.32.44-.71.44-1.18s-.14-.86-.44-1.18Z"/>
    <path class="cls-2" d="m167.62,117.86c-.6-1.02-1.41-1.82-2.43-2.41-1.01-.58-2.15-.87-3.41-.87s-2.4.29-3.42.89c-1.02.59-1.82,1.39-2.41,2.4-.6,1.01-.9,2.13-.9,3.37s.3,2.4.9,3.42c.59,1.02,1.39,1.83,2.41,2.43,1.02.6,2.16.9,3.42.9s2.4-.3,3.41-.9c1.02-.6,1.83-1.41,2.43-2.43.61-1.02.91-2.16.91-3.42s-.3-2.37-.91-3.38Zm-2.36,5.54c-.34.64-.81,1.13-1.42,1.49-.6.36-1.29.54-2.06.54s-1.47-.18-2.07-.54-1.07-.85-1.42-1.49c-.34-.63-.51-1.35-.51-2.16s.17-1.49.51-2.1c.35-.61.82-1.1,1.42-1.46s1.29-.54,2.07-.54,1.46.18,2.05.54,1.07.85,1.42,1.46c.35.61.52,1.31.52,2.1s-.17,1.53-.51,2.16Z"/>
    <path class="cls-2" d="m181.47,117.32c-.47-.88-1.14-1.55-1.98-2.03-.85-.48-1.85-.71-3-.71s-2.13.24-2.98.72c-.86.49-1.52,1.17-2,2.03s-.72,1.87-.72,3.02v6.04c0,.74.6,1.33,1.33,1.33h.01c.74,0,1.33-.6,1.33-1.33v-5.85c0-1.02.26-1.85.78-2.47.52-.62,1.27-.93,2.24-.93s1.74.31,2.26.93c.51.62.77,1.45.77,2.47v5.85c0,.74.6,1.33,1.33,1.33h0c.74,0,1.33-.6,1.33-1.33v-6.04c0-1.15-.24-2.16-.72-3.03Z"/>
  </g>
  <g>
    <path class="cls-2" d="m61.51,146.26v-7.1h.7v7.1h-.7Z"/>
    <path class="cls-2" d="m64.99,146.26v-7.1h.7v7.1h-.7Z"/>
    <path class="cls-2" d="m73.51,139.78h-2.53v6.48h-.7v-6.48h-2.53v-.62h5.76v.62Z"/>
    <path class="cls-2" d="m84.44,139.16v7.1h-.69v-3.32h-4.21v3.32h-.7v-7.1h.7v3.16h4.21v-3.16h.69Z"/>
    <path class="cls-2" d="m87.26,139.16l2.32,3.82,2.34-3.82h.76l-2.75,4.46v2.64h-.7v-2.66l-2.74-4.44h.77Z"/>
    <path class="cls-2" d="m94.73,146.26v-7.1h2.41c.75,0,1.38.16,1.88.48.5.32.88.74,1.14,1.28.25.54.38,1.13.38,1.79,0,.72-.14,1.35-.42,1.88-.28.53-.67.95-1.18,1.24-.51.29-1.11.44-1.81.44h-2.41Zm5.11-3.56c0-.57-.11-1.07-.32-1.51s-.51-.79-.92-1.04c-.4-.25-.89-.38-1.47-.38h-1.71v5.86h1.71c.59,0,1.08-.13,1.48-.39.4-.26.7-.61.91-1.06.21-.44.31-.94.31-1.5Z"/>
    <path class="cls-2" d="m107.65,145.64v.62h-4.77v-7.1h4.68v.62h-3.98v2.56h3.47v.59h-3.47v2.71h4.07Z"/>
    <path class="cls-2" d="m109.97,146.26v-7.1h3c.31,0,.59.06.84.19.25.13.47.3.66.52.19.22.34.46.44.72.1.26.16.53.16.8,0,.34-.07.66-.2.96-.13.3-.31.55-.55.76-.24.21-.51.34-.83.41l1.74,2.74h-.79l-1.67-2.62h-2.1v2.62h-.7Zm.7-3.24h2.32c.28,0,.52-.08.73-.23.21-.15.37-.35.48-.6s.17-.51.17-.79-.07-.55-.2-.79c-.13-.24-.3-.44-.52-.59s-.46-.23-.73-.23h-2.26v3.24Z"/>
    <path class="cls-2" d="m119.59,139.16h.59l2.95,7.1h-.74l-.89-2.22h-3.25l-.89,2.22h-.75l2.97-7.1Zm1.69,4.33l-1.4-3.51-1.4,3.51h2.81Z"/>
    <path class="cls-2" d="m130.49,144.43c0,.35-.09.67-.27.95-.18.28-.42.49-.72.65-.3.16-.64.23-1,.23h-3.35v-7.1h3.42c.33,0,.62.09.87.27s.43.4.56.68c.13.28.19.56.19.86,0,.35-.09.68-.27.98-.18.3-.43.52-.75.67.41.12.73.34.96.67.24.33.36.71.36,1.14Zm-4.64-4.66v2.62h2.44c.23,0,.44-.06.62-.19.18-.12.32-.28.43-.48s.16-.41.16-.64c0-.24-.05-.46-.15-.65-.1-.2-.24-.35-.41-.48-.17-.12-.37-.18-.59-.18h-2.5Zm3.94,4.54c0-.24-.05-.46-.16-.67-.11-.2-.25-.37-.44-.49-.18-.13-.39-.19-.62-.19h-2.72v2.69h2.65c.24,0,.46-.06.65-.19.19-.13.35-.29.47-.5.12-.2.17-.42.17-.66Z"/>
    <path class="cls-2" d="m134.86,139.16h.59l2.95,7.1h-.74l-.89-2.22h-3.25l-.89,2.22h-.75l2.97-7.1Zm1.69,4.33l-1.4-3.51-1.4,3.51h2.81Z"/>
    <path class="cls-2" d="m140.42,146.26v-7.1h2.41c.75,0,1.38.16,1.88.48.5.32.88.74,1.14,1.28.25.54.38,1.13.38,1.79,0,.72-.14,1.35-.42,1.88-.28.53-.67.95-1.18,1.24-.51.29-1.11.44-1.81.44h-2.41Zm5.11-3.56c0-.57-.11-1.07-.32-1.51s-.51-.79-.92-1.04c-.4-.25-.89-.38-1.47-.38h-1.71v5.86h1.71c.59,0,1.08-.13,1.48-.39.4-.26.7-.61.91-1.06.21-.44.31-.94.31-1.5Z"/>
  </g>
</svg>