<svg width="1320" height="571" viewBox="0 0 1320 571" fill="none" xmlns="http://www.w3.org/2000/svg">
<g style="mix-blend-mode:plus-lighter">
<path d="M434.053 177.708C424.955 177.708 422.185 174.036 427.003 166.741L453.424 126.645H500.157L506.486 166.724C507.644 174.036 503.044 177.708 493.963 177.708L493.443 180.14H534.519L534.955 177.725C532.89 177.725 524.178 176.618 522.298 166.322L503.078 60.6406H476.556L476.069 62.6362C477.949 62.6362 489.464 62.6865 483.321 71.893L420.624 166.305C413.104 177.641 404.644 177.725 402.579 177.725L401.891 180.14H433.432L434.053 177.708ZM491.143 69.4446L499.419 121.883H456.58L491.143 69.4446Z" fill="#F1ECE5"/>
<path d="M677.489 147.557C678.68 130.016 657.731 118.546 639.25 110.144C622.917 102.716 608.631 95.6388 610.243 82.9946C611.854 70.3505 625.737 64.8669 638.964 64.8669C656.707 64.8669 668.827 75.6161 671.412 90.0043H673.913L673.191 70.2666C664.278 63.2067 651.487 60.6074 639.417 60.6074C616.42 60.6074 599.063 69.7971 596.764 86.315C594.867 99.9486 611.586 109.524 628.523 117.691C646.82 126.511 664.328 136.422 662.784 154.818C661.307 172.191 641.449 178.262 626.895 178.262C605.526 178.262 593.205 163.639 590.2 136.892H587.598L586.205 168.536C597.217 178.463 610.763 183.477 626.341 183.477C650.328 183.477 675.793 172.695 677.489 147.557Z" fill="#F1ECE5"/>
<path d="M723.633 179.2H717.422C715.358 179.2 707.082 179.201 707.552 167.998L709.818 115.275H737.75C759.371 115.275 779.531 107.041 779.263 88.2764C778.994 69.7629 759.489 62.1328 738.825 62.1328H689.91L689.792 64.1284C691.672 64.1284 699.209 64.1284 698.706 73.5696L693.603 168.015C692.998 179.217 684.723 179.217 682.641 179.217L682.49 181.632H723.549L723.616 179.217L723.633 179.2ZM711.917 66.409H734.192C755.225 66.409 766.119 73.7876 766.17 88.2429C766.22 102.547 754.637 110.58 733.134 110.58H710.02L711.917 66.409Z" fill="#F1ECE5"/>
<path d="M778.775 167.776L814.63 73.3637H814.614C818.122 64.1572 806.607 64.1069 804.727 64.1069L804.659 62.1113H831.182L880.449 167.793C885.25 178.089 894.281 179.196 896.346 179.196L896.598 181.611H855.522L855.354 179.179C864.435 179.179 867.977 175.506 864.754 168.195L844.93 123.353L821.748 70.9153L800.312 128.116L785.288 168.212C782.552 175.506 786.362 179.179 795.461 179.179L795.528 181.611H763.986V179.196C766.051 179.196 774.478 179.112 778.775 167.776Z" fill="#F1ECE5"/>
<path d="M884.242 118.962C887.7 153.642 915.683 183.491 957.43 183.491C978.245 183.491 992.631 178.746 1002.55 168.516L999.497 136.906H996.895C999.396 163.871 984.137 178.276 956.641 178.276C921.726 178.276 900.894 148.292 897.655 118.962C894.583 91.1419 907.71 64.8809 939.486 64.8809C957.85 64.8809 979.487 74.4898 986.588 91.7959H989.089L981.485 73.0979C969.584 64.9647 954.745 60.5879 938.831 60.5879C901.062 60.5879 880.969 86.1278 884.242 118.962Z" fill="#F1ECE5"/>
<path d="M1006.41 73.5528L1025.95 167.998C1028.27 179.2 1019.99 179.2 1017.93 179.2L1018.42 181.615H1111.26L1103.29 136.908H1100.69C1103.29 151.162 1106.49 176.434 1086.38 176.434H1041.77L1028.44 115.275H1070.92C1083.77 115.275 1084.17 120.289 1085.12 123.694H1087.69L1082.05 102.346H1079.52C1080.36 105.683 1082.54 110.597 1069.73 110.597H1027.41L1017.8 66.4258H1064.24C1076.26 66.4258 1080.96 75.3304 1083.51 80.4786H1086L1076.93 62.1328H994.664L995.067 64.1284C996.947 64.1284 1004.48 64.1284 1006.45 73.5696L1006.41 73.5528Z" fill="#F1ECE5"/>
<path d="M201.295 123.428C114.745 123.428 40.3147 193.189 11.3752 283.643C-19.545 380.286 12.332 464.284 109.927 464.284C207.522 464.284 284.42 380.269 305.319 283.643C324.875 193.172 287.844 123.428 201.295 123.428ZM301.122 277.271C279.821 375.875 215.647 430.628 135.039 441.561C46.0556 453.635 -0.391958 370.14 22.7395 289.16C47.1299 203.77 118.857 125.641 196.41 125.641C299.192 125.641 317.741 200.265 301.105 277.288L301.122 277.271Z" fill="#F1ECE5"/>
<path d="M409.963 208.411H336.893L336.07 212.335C339.192 212.335 351.715 212.335 347.955 230.983L309.716 420.562C305.1 443.452 291.1 443.452 287.592 443.452L286.551 448.399H368.669C437.207 448.399 498.813 389.572 506.685 321.404C514.071 257.479 470.948 208.395 409.963 208.395V208.411ZM484.209 321.421C477.024 378.252 427.421 437.801 370.482 437.801H329.977L372.11 216.913H408.503C459.634 216.913 491.024 267.591 484.209 321.438V321.421Z" fill="#F1ECE5"/>
<path d="M687.59 208.408H645.591L645.406 212.366C655.294 212.366 655.881 217.38 648.176 228.8L586.554 320.294L530.572 208.408H493.357L492.887 212.332C495.824 212.332 508.397 212.332 517.831 228.112L568.878 330.943L561.761 420.559C559.948 443.449 545.931 443.449 542.44 443.449L542.003 448.396H600.956L601.259 443.449C597.767 443.449 583.751 443.449 585.328 420.559L591.472 330.943L658.03 231.634C670.972 212.332 684.401 212.332 687.523 212.332L687.607 208.408H687.59Z" fill="#F1ECE5"/>
<path d="M1146.28 357.522C1150.29 386.349 1155.05 437.798 1121.05 437.798H1045.61L1026.84 317.913H1097.96C1119.47 317.913 1120.01 327.958 1121.5 334.816H1125.81L1116.06 288.181H1111.83C1113.12 294.838 1116.63 304.665 1095.19 304.665H1024.39L1010.41 216.894H1087.56C1107.53 216.894 1115.04 234.485 1119.13 244.664H1123.26L1108.74 208.408H972.186L972.74 212.332C975.862 212.332 988.384 212.332 991.154 230.98L1019.29 420.559C1022.68 443.449 1008.68 443.449 1005.17 443.449L1005.86 448.396H1162.98L1150.62 357.522H1146.26H1146.28Z" fill="#F1ECE5"/>
<path d="M1288.28 419.504L1263.67 329.888L1296.16 230.579C1302.47 211.278 1315.9 211.278 1319.02 211.278L1317.76 207.354H1275.76L1276.93 211.311C1286.82 211.311 1289.12 216.325 1285.34 227.745L1255.13 319.239L1160.74 207.354H1123.53L1124.4 211.278C1127.34 211.278 1139.91 211.278 1154.76 227.058L1241.1 329.888L1264.73 419.504C1270.77 442.394 1256.76 442.394 1253.27 442.394L1254.53 447.341H1313.48L1312.09 442.394C1308.58 442.394 1294.58 442.394 1288.3 419.504H1288.28Z" fill="#F1ECE5"/>
<path d="M972.203 141.786C953.587 142.423 953.066 142.943 952.428 161.54C951.791 142.943 951.27 142.423 932.654 141.786C951.27 141.148 951.791 140.629 952.428 122.031C953.066 140.629 953.587 141.148 972.203 141.786Z" fill="#F1ECE5"/>
<path d="M997.566 247.887C945.411 249.665 943.968 251.107 942.188 303.209C940.409 251.107 938.965 249.665 886.811 247.887C938.965 246.109 940.409 244.667 942.188 192.564C943.968 244.667 945.411 246.109 997.566 247.887Z" fill="#F1ECE5"/>
<path d="M434.053 177.708C424.955 177.708 422.185 174.036 427.003 166.741L453.424 126.645H500.157L506.486 166.724C507.644 174.036 503.044 177.708 493.963 177.708L493.443 180.14H534.519L534.955 177.725C532.89 177.725 524.178 176.618 522.298 166.322L503.078 60.6406H476.556L476.069 62.6362C477.949 62.6362 489.464 62.6865 483.321 71.893L420.624 166.305C413.104 177.641 404.644 177.725 402.579 177.725L401.891 180.14H433.432L434.053 177.708ZM491.143 69.4446L499.419 121.883H456.58L491.143 69.4446Z" fill="#F1ECE5"/>
<path d="M677.489 147.557C678.68 130.016 657.731 118.546 639.25 110.144C622.917 102.716 608.631 95.6388 610.243 82.9946C611.854 70.3505 625.737 64.8669 638.964 64.8669C656.707 64.8669 668.827 75.6161 671.412 90.0043H673.913L673.191 70.2666C664.278 63.2067 651.487 60.6074 639.417 60.6074C616.42 60.6074 599.063 69.7971 596.764 86.315C594.867 99.9486 611.586 109.524 628.523 117.691C646.82 126.511 664.328 136.422 662.784 154.818C661.307 172.191 641.449 178.262 626.895 178.262C605.526 178.262 593.205 163.639 590.2 136.892H587.598L586.205 168.536C597.217 178.463 610.763 183.477 626.341 183.477C650.328 183.477 675.793 172.695 677.489 147.557Z" fill="#F1ECE5"/>
<path d="M723.633 179.2H717.422C715.358 179.2 707.082 179.201 707.552 167.998L709.818 115.275H737.75C759.371 115.275 779.531 107.041 779.263 88.2764C778.994 69.7629 759.489 62.1328 738.825 62.1328H689.91L689.792 64.1284C691.672 64.1284 699.209 64.1284 698.706 73.5696L693.603 168.015C692.998 179.217 684.723 179.217 682.641 179.217L682.49 181.632H723.549L723.616 179.217L723.633 179.2ZM711.917 66.409H734.192C755.225 66.409 766.119 73.7876 766.17 88.2429C766.22 102.547 754.637 110.58 733.134 110.58H710.02L711.917 66.409Z" fill="#F1ECE5"/>
<path d="M884.242 118.962C887.7 153.642 915.683 183.491 957.43 183.491C978.245 183.491 992.631 178.746 1002.55 168.516L999.497 136.906H996.895C999.396 163.871 984.137 178.276 956.641 178.276C921.726 178.276 900.894 148.292 897.655 118.962C894.583 91.1419 907.71 64.8809 939.486 64.8809C957.85 64.8809 979.487 74.4898 986.588 91.7959H989.089L981.485 73.0979C969.584 64.9647 954.745 60.5879 938.831 60.5879C901.062 60.5879 880.969 86.1278 884.242 118.962Z" fill="#F1ECE5"/>
<path d="M1006.41 73.5528L1025.95 167.998C1028.27 179.2 1019.99 179.2 1017.93 179.2L1018.42 181.615H1111.26L1103.29 136.908H1100.69C1103.29 151.162 1106.49 176.434 1086.38 176.434H1041.77L1028.44 115.275H1070.92C1083.77 115.275 1084.17 120.289 1085.12 123.694H1087.69L1082.05 102.346H1079.52C1080.36 105.683 1082.54 110.597 1069.73 110.597H1027.41L1017.8 66.4258H1064.24C1076.26 66.4258 1080.96 75.3304 1083.51 80.4786H1086L1076.93 62.1328H994.664L995.067 64.1284C996.947 64.1284 1004.48 64.1284 1006.45 73.5696L1006.41 73.5528Z" fill="#F1ECE5"/>
<path d="M201.295 123.428C114.745 123.428 40.3147 193.189 11.3752 283.643C-19.545 380.286 12.332 464.284 109.927 464.284C207.522 464.284 284.42 380.269 305.319 283.643C324.875 193.172 287.844 123.428 201.295 123.428ZM301.122 277.271C279.821 375.875 215.647 430.628 135.039 441.561C46.0556 453.635 -0.391958 370.14 22.7395 289.16C47.1299 203.77 118.857 125.641 196.41 125.641C299.192 125.641 317.741 200.265 301.105 277.288L301.122 277.271Z" fill="#F1ECE5"/>
<path d="M409.963 208.411H336.893L336.07 212.335C339.192 212.335 351.715 212.335 347.955 230.983L309.716 420.562C305.1 443.452 291.1 443.452 287.592 443.452L286.551 448.399H368.669C437.207 448.399 498.813 389.572 506.685 321.404C514.071 257.479 470.948 208.395 409.963 208.395V208.411ZM484.209 321.421C477.024 378.252 427.421 437.801 370.482 437.801H329.977L372.11 216.913H408.503C459.634 216.913 491.024 267.591 484.209 321.438V321.421Z" fill="#F1ECE5"/>
<path d="M687.59 208.408H645.591L645.406 212.366C655.294 212.366 655.881 217.38 648.176 228.8L586.554 320.294L530.572 208.408H493.357L492.887 212.332C495.824 212.332 508.397 212.332 517.831 228.112L568.878 330.943L561.761 420.559C559.948 443.449 545.931 443.449 542.44 443.449L542.003 448.396H600.956L601.259 443.449C597.767 443.449 583.751 443.449 585.328 420.559L591.472 330.943L658.03 231.634C670.972 212.332 684.401 212.332 687.523 212.332L687.607 208.408H687.59Z" fill="#F1ECE5"/>
<path d="M1146.28 357.522C1150.29 386.349 1155.05 437.798 1121.05 437.798H1045.61L1026.84 317.913H1097.96C1119.47 317.913 1120.01 327.958 1121.5 334.816H1125.81L1116.06 288.181H1111.83C1113.12 294.838 1116.63 304.665 1095.19 304.665H1024.39L1010.41 216.894H1087.56C1107.53 216.894 1115.04 234.485 1119.13 244.664H1123.26L1108.74 208.408H972.186L972.74 212.332C975.862 212.332 988.384 212.332 991.154 230.98L1019.29 420.559C1022.68 443.449 1008.68 443.449 1005.17 443.449L1005.86 448.396H1162.98L1150.62 357.522H1146.26H1146.28Z" fill="#F1ECE5"/>
<path d="M1288.28 419.504L1263.67 329.888L1296.16 230.579C1302.47 211.278 1315.9 211.278 1319.02 211.278L1317.76 207.354H1275.76L1276.93 211.311C1286.82 211.311 1289.12 216.325 1285.34 227.745L1255.13 319.239L1160.74 207.354H1123.53L1124.4 211.278C1127.34 211.278 1139.91 211.278 1154.76 227.058L1241.1 329.888L1264.73 419.504C1270.77 442.394 1256.76 442.394 1253.27 442.394L1254.53 447.341H1313.48L1312.09 442.394C1308.58 442.394 1294.58 442.394 1288.3 419.504H1288.28Z" fill="#F1ECE5"/>
<path d="M972.203 141.786C953.587 142.423 953.066 142.943 952.428 161.54C951.791 142.943 951.27 142.423 932.654 141.786C951.27 141.148 951.791 140.629 952.428 122.031C953.066 140.629 953.587 141.148 972.203 141.786Z" fill="#F1ECE5"/>
<path d="M997.566 247.887C945.411 249.665 943.968 251.107 942.188 303.209C940.409 251.107 938.965 249.665 886.811 247.887C938.965 246.109 940.409 244.667 942.188 192.564C943.968 244.667 945.411 246.109 997.566 247.887Z" fill="#F1ECE5"/>
<path d="M315.742 136.437L291.57 148.494L279.366 125.117L276.63 155.939L252.475 167.997L274.951 174.99L272.215 205.812L288.85 179.299L311.327 186.292L299.124 162.932L315.742 136.437Z" fill="#F1ECE5"/>
<path d="M312.941 116.179L304.044 118.343L300.217 111.148L298.874 119.583L290.984 121.512L298.035 124.832L296.658 133.351L302.668 127.029L310.658 130.819L306.495 122.971L312.941 116.179Z" fill="#F1ECE5"/>
<path d="M388.007 125.438L373.151 137.679L359.319 127.567L364.506 144.806L351.346 155.639L367.746 155.505L372.983 172.895L378.523 155.405L397.139 155.237L382.064 144.219L388.007 125.438Z" fill="#F1ECE5"/>
<path d="M691.484 327.713H688.361V358.804H691.484V327.713Z" fill="#F1ECE5"/>
<path d="M625.97 445.855L609.939 446.359V448.421C609.939 448.421 619.256 448.891 625.97 449.243C632.685 449.595 625.97 445.855 625.97 445.855Z" fill="#F1ECE5"/>
<path d="M691.532 542.881H687.939V570.215H691.532V542.881Z" fill="#F1ECE5"/>
<path d="M1021.92 304.249C1019.38 305.272 1003.35 302.74 1003.35 302.74C985.359 298.732 973.323 291.454 960.516 278.223C948.597 265.897 937.585 241.146 935.622 223.923C932.785 199.004 935.084 192.162 942.051 168.064C948.866 144.486 967.834 118.745 986.92 102.445C978.863 108.952 971.024 115.123 964.427 123.692C951.568 140.411 939.197 159.042 932.617 179.082C927.363 195.097 926.356 201.922 925.214 219.63L923.854 218.322C901.008 200.966 894.546 200.731 874.486 200.731C848.4 200.731 827.888 213.61 818.387 229.407C817.111 228.216 815.801 227.076 814.442 225.986C803.749 214.214 786.946 210.038 786.946 210.038C776.354 206.567 765.208 205.125 754.498 205.125C716.326 205.125 689.317 223.236 688.747 255.953C688.277 283.086 718.122 302.203 748.153 318.553C780.668 336.262 812.192 356.234 813.602 393.446C814.929 428.829 782.682 441.205 758.057 441.205C696.854 439.814 692.087 423.648 691.483 357.157H688.344V359.186C689.603 428.964 676.677 443 625.949 445.851V449.238C629.39 449.406 632.647 449.59 635.719 449.775C662.745 453.397 687.571 454.42 687.958 546.669H691.533V538.234C691.449 522.973 692.91 490.34 705.499 468.623C712.415 460.239 725.81 451.25 751.309 451.569C751.846 451.602 752.383 451.636 752.87 451.67C753.222 451.686 753.558 451.703 753.911 451.72C755.942 451.82 757.167 451.837 757.167 451.837L756.378 451.787C756.999 451.787 757.604 451.837 758.225 451.837C784.529 451.837 810.85 442.564 825.403 422.138C847.41 441.826 871.851 451.837 897.836 451.837C934.631 451.837 970.033 433.726 971.225 392.289L971.259 389.69C971.158 387.157 971.259 388.365 971.124 386.017C971.007 383.636 970.805 381.204 970.47 378.689C965.702 343.272 926.221 320.23 892.112 303.394C868.04 291.521 846.302 280.084 837.64 263.097C837.355 262.057 837.12 261.001 836.919 259.927C836.113 257.295 835.156 254.712 834.098 252.23C833.947 251.274 833.83 250.318 833.746 249.329C831.883 224.326 852.966 213.493 874.923 213.493C904.382 213.493 912.675 220.804 930.636 247.904L930.754 248.071C933.456 256.506 936.729 261.873 941.849 271.163C956.806 298.246 988.011 316.558 1018.97 316.524L1021.26 314.311C1021.26 314.311 1024.44 303.226 1021.9 304.249H1021.92ZM877.91 318.922C911.852 336.631 945.005 356.603 949.437 393.815C953.633 429.198 922.377 441.574 897.752 441.574C873.126 441.574 851.556 426.599 836.449 398.594C837.607 392.624 838.094 386.134 837.708 379.091C835.811 343.674 798.193 320.633 765.46 303.796C736.604 288.955 711.324 274.835 711.492 249.732C711.66 224.728 733.616 213.895 755.573 213.895C783.874 213.895 805.696 233.482 813.921 260.33C818.286 285.367 848.115 303.411 877.91 318.939V318.922Z" fill="#F1ECE5"/>
<path d="M1085.27 0C1099.41 24.081 1098.84 25.02 1059.05 26.3784C1100.3 27.4181 1102.13 28.4242 1144.33 91.4439C1105.11 28.4242 1105.63 27.4013 1149.73 25.9759C1104.02 24.9865 1102.23 24.0642 1085.27 0Z" fill="#F1ECE5"/>
<path d="M1079.72 28.543C1085.79 46.4192 1085.42 47.0062 1065.25 47.3583C1085.99 48.4986 1086.8 49.1359 1098.26 77.4763C1088.26 49.1694 1088.61 48.549 1109.86 48.2136C1088.03 47.0565 1087.22 46.4528 1079.73 28.543H1079.72Z" fill="#F1ECE5"/>
<path d="M851.12 124.868C825.152 126.142 824.43 127.182 823.541 172.879C822.651 127.182 821.929 126.142 795.961 124.868C821.946 123.61 822.668 122.604 823.541 91.4297C824.414 122.587 825.135 123.594 851.12 124.868Z" fill="#F1ECE5"/>
</g>
</svg>
