<?xml version="1.0" encoding="UTF-8"?>
<svg id="Layer_1" data-name="Layer 1" xmlns="http://www.w3.org/2000/svg" viewBox="0 0 207.75 110.06">
  <defs>
    <style>
      .cls-1 {
        fill: #1e38a6;
      }

      .cls-2 {
        fill: #ffbc4a;
      }

      .cls-3 {
        fill: #d92400;
      }

      .cls-4 {
        fill: #4ead4a;
      }

      .cls-5 {
        fill: #1e1e1e;
      }
    </style>
  </defs>
  <g>
    <path class="cls-5" d="m55.33,57.34l3.35-1.17c.18-.06.37,0,.49.14l2.17,2.75c.26.32.79.14.77-.27l-.11-3.47c0-.18.11-.35.29-.41l3.35-1.17c.39-.14.38-.69-.02-.8l-3.41-.97c-.18-.05-.3-.21-.31-.39l-.11-3.47c-.01-.41-.55-.56-.79-.23l-2,2.87c-.11.15-.3.22-.48.17l-3.41-.97c-.4-.11-.72.34-.46.66l2.17,2.75c.11.14.12.34.02.5l-2,2.87c-.24.34.11.77.5.63Z"/>
    <path class="cls-1" d="m48.98,43.69c-.5.53-.95,1.08-1.35,1.66-.18.25-.52.33-.78.17l-4.8-2.95-6.08-3.73-3.77-2.32-2.22-1.36c-.27-.17-.36-.52-.18-.79,1.22-1.84,2.65-3.6,4.26-5.23.22-.23.6-.23.83,0l1.84,1.8,3.16,3.09,5.08,4.96,4.01,3.92c.22.22.22.56,0,.78Z"/>
    <path class="cls-3" d="m78.31,23.55c.28.16.36.52.19.79l-1.39,2.15-2.37,3.7-3.81,5.93-3.33,5.17-2.01,3.12-.71,1.12c-.16.26-.5.33-.78.19s-.54-.28-.82-.39-.43-.42-.33-.7l.45-1.26,1.25-3.48,2.06-5.76,2.36-6.62,1.47-4.11.87-2.41c.11-.3.45-.46.75-.35,2.12.77,4.18,1.73,6.16,2.91Z"/>
    <path class="cls-2" d="m55.64,43.56c-.41.17-.81.36-1.2.57-.27.15-.61.08-.78-.18l-1.72-2.66-3.33-5.17-3.81-5.93-2.37-3.7-1.39-2.15c-.17-.27-.09-.63.19-.79,1.97-1.18,4.04-2.14,6.16-2.91.3-.11.64.05.75.35l.87,2.41,1.47,4.11,2.36,6.62,2.06,5.76,1.07,2.97c.1.29-.05.59-.34.7Z"/>
    <path class="cls-4" d="m60.34,44.64c.24.02.47-.16.5-.4l.16-1.4.35-3.09c.04-.31-.2-.6-.52-.63-.71-.05-1.41-.05-2.12,0-.32.02-.56.31-.52.63l.36,3.09.16,1.4c.03.25.25.42.5.4.28-.02.68-.03,1.14,0Z"/>
    <path class="cls-1" d="m95.26,48.97c.04.31-.19.6-.52.63l-2.61.29-4.42.48-6.58.73c-.31.03-.59-.18-.63-.49-.16-1.17-.43-2.31-.78-3.41-.09-.29.06-.6.35-.7l6.26-2.13,4.2-1.44,2.47-.85c.31-.11.65.06.75.36.72,2.14,1.23,4.31,1.51,6.52Z"/>
    <path class="cls-4" d="m51.09,51.05c-.08.29-.15.58-.2.88s-.32.51-.63.47l-1.35-.15-3.75-.41-5.59-.61c-.32-.04-.56-.32-.52-.64.16-1.15.42-2.27.77-3.35.1-.3.44-.46.75-.36l5.32,1.82,3.56,1.22,1.28.43c.29.1.44.4.36.69Z"/>
    <path class="cls-4" d="m34.05,77.76c-1.62-1.63-3.04-3.39-4.26-5.23-.18-.26-.09-.62.18-.79l2.21-1.36,3.78-2.31,6.08-3.73,4.8-2.95c.27-.16.61-.08.78.17.4.58.84,1.13,1.35,1.66.21.22.22.57,0,.78l-4.01,3.92-5.08,4.96-3.16,3.09-1.84,1.79c-.23.22-.61.22-.83,0Z"/>
    <path class="cls-1" d="m62.83,21.75c.32.03.55.32.52.63l-.42,3.77-.74,6.42c-.03.3-.31.52-.62.49-.59-.05-1.19-.07-1.79-.07s-1.19.02-1.78.08c-.31.03-.59-.19-.63-.49l-.75-6.42-.42-3.76c-.04-.31.2-.6.51-.63,1.01-.1,2.03-.14,3.07-.14s2.05.04,3.05.14Z"/>
    <path class="cls-3" d="m83.25,38.35c.18.26.09.62-.18.79l-5.58,3.42-5.28,3.24-2.72,1.68c-.26.16-.6.08-.78-.17-.26-.36-.53-.7-.83-1.03-.21-.22-.21-.56.01-.77l2.27-2.22,4.41-4.31,4.66-4.55c.23-.22.61-.22.83,0,1.21,1.23,2.26,2.54,3.18,3.91Z"/>
    <path class="cls-2" d="m74.31,51.26c.05.31-.19.6-.51.64l-3.17.35-1.36.15c-.31.03-.58-.18-.63-.48s-.12-.58-.2-.86.07-.59.36-.69l1.29-.44,3-1.03c.31-.11.65.06.74.36.21.66.37,1.33.47,2.01Z"/>
    <path class="cls-1" d="m76.61,80.7c-1.74,1.03-3.58,1.91-5.52,2.6-.3.11-.64-.05-.75-.35l-1.28-3.56-2.36-6.63-1.87-5.23c-.1-.29.05-.6.34-.71.67-.26,1.33-.56,1.96-.93.27-.16.62-.08.78.18l3.02,4.69,3.82,5.93,2.05,3.21c.17.27.09.62-.19.79Z"/>
    <path class="cls-4" d="m83.26,68.55c-.92,1.38-1.98,2.69-3.19,3.92-.22.23-.6.23-.83,0l-9.07-8.86-2.27-2.22c-.22-.21-.22-.55-.01-.77.3-.33.58-.67.83-1.03.18-.25.52-.33.78-.17l2.72,1.68,5.28,3.24,5.59,3.42c.27.17.36.52.18.79Z"/>
    <path class="cls-2" d="m51.09,55.85c.08.29-.07.59-.36.69l-1.28.43-3.56,1.22-5.88,2.01-6.78,2.31h0s-3.65,1.25-3.65,1.25c-.3.1-.64-.05-.74-.35-.63-1.87-1.08-3.82-1.35-5.83-.04-.31.19-.6.52-.64l3.84-.41,7.13-.8,6.19-.67,3.75-.4,1.35-.15c.31-.03.58.18.63.47s.12.58.2.87Z"/>
    <path class="cls-2" d="m60.42,64.11c.32-.02.61.22.64.53l.35,3.1.69,6.05.82,6.97.49,4.33.29,2.53c.04.31-.2.6-.52.63-2.27.22-4.57.22-6.83,0-.32-.03-.55-.32-.52-.63l.29-2.54.49-4.32.82-6.98.69-6.04.36-3.1c.04-.31.32-.54.64-.52.48.02.77.03,1.31,0Z"/>
    <path class="cls-3" d="m56.27,61.58c.29.12.44.42.33.71l-.45,1.26-1.25,3.48-2.06,5.75-2.17,6.08c-.11.3-.45.46-.75.35-1.6-.58-3.15-1.31-4.63-2.19-.27-.16-.36-.52-.19-.79l3.51-5.45,3.32-5.16,2.02-3.12.71-1.12c.16-.26.5-.33.78-.19s.54.27.82.39Z"/>
    <path class="cls-3" d="m92.08,57.58c-.27,2.01-.72,3.97-1.35,5.83-.1.3-.44.46-.74.35l-3.65-1.24-6.78-2.32-5.88-2.01-3.56-1.22-1.29-.43c-.29-.1-.44-.4-.36-.7s.15-.57.2-.87.32-.51.63-.48l1.36.15,3.75.41,6.19.67,7.13.8,3.84.41c.32.03.56.32.52.64Z"/>
  </g>
  <g>
    <path class="cls-5" d="m112,43.24c-.47.19-1,.28-1.6.28s-1.09-.09-1.54-.3l5.24-5.28c.33-.33.37-.87.08-1.23-.36-.46-.79-.84-1.28-1.14-.72-.44-1.58-.66-2.59-.66s-1.92.23-2.73.7c-.81.47-1.45,1.1-1.92,1.9-.47.8-.7,1.68-.7,2.66s.24,1.9.7,2.7c.47.81,1.11,1.45,1.93,1.92.83.47,1.78.71,2.84.71.84,0,1.6-.14,2.31-.43.37-.15.7-.34,1.01-.56.47-.34.52-1.01.12-1.42l-.04-.04c-.31-.31-.81-.4-1.17-.15-.2.14-.42.25-.65.34Zm-4.46-1.19s-.06-.09-.09-.13c-.28-.51-.42-1.09-.42-1.76s.14-1.21.42-1.71.66-.9,1.16-1.19,1.08-.43,1.75-.43,1.2.13,1.6.37c.09.06.17.11.24.17l-4.67,4.67Z"/>
    <path class="cls-5" d="m116.74,30.93v13.42c0,.52.42.93.93.93h.24c.52,0,.93-.42.93-.93v-13.42c0-.52-.42-.93-.93-.93h-.24c-.52,0-.93.42-.93.93Z"/>
    <path class="cls-5" d="m130.4,35.12c-.58,0-1.06.47-1.06,1.06v.22c-.32-.41-.73-.75-1.2-1-.61-.33-1.3-.49-2.08-.49-.92,0-1.76.23-2.51.7-.74.47-1.34,1.11-1.77,1.9-.43.81-.65,1.71-.65,2.7s.21,1.89.65,2.69c.43.8,1.03,1.43,1.77,1.9.75.47,1.59.7,2.53.7.77,0,1.46-.16,2.07-.49.48-.25.88-.58,1.19-.99v.21c0,.58.47,1.06,1.06,1.06h0c.58,0,1.06-.47,1.06-1.06v-8.05c0-.58-.47-1.06-1.06-1.06h0Zm-1.77,7.47c-.56.62-1.3.92-2.21.92-.61,0-1.15-.14-1.62-.43-.47-.28-.84-.67-1.11-1.17s-.4-1.07-.4-1.73.13-1.21.4-1.71.63-.88,1.1-1.17c.46-.28,1-.43,1.61-.43s1.16.14,1.62.43c.46.28.81.67,1.07,1.17s.39,1.07.39,1.73c0,.96-.28,1.76-.85,2.38Z"/>
    <path class="cls-5" d="m142.41,37.07c-.38-.7-.9-1.22-1.57-1.6-.66-.38-1.45-.56-2.36-.56s-1.68.19-2.36.57c-.67.39-1.2.92-1.57,1.6-.38.68-.57,1.48-.57,2.39v4.77c0,.58.47,1.05,1.05,1.05h0c.58,0,1.05-.47,1.05-1.05v-4.62c0-.81.21-1.46.62-1.95.41-.49,1-.73,1.77-.73s1.37.24,1.78.73c.41.49.61,1.15.61,1.95v21.21c0,.58.47,1.05,1.05,1.05h0c.58,0,1.05-.47,1.05-1.05v-21.36c0-.91-.19-1.71-.57-2.39Z"/>
    <path class="cls-5" d="m154.98,36.56c-.4-.45-.7-.85-.91-1.19-.21-.33-.31-.75-.31-1.25,0-.55.2-1,.59-1.36.4-.36.9-.54,1.49-.54.55,0,1,.13,1.38.4.14.1.27.21.4.34.4.37,1.01.41,1.42.05h0c.46-.41.46-1.12.02-1.54-.08-.07-.15-.14-.24-.21-.38-.33-.82-.59-1.32-.78s-1.05-.28-1.67-.28c-.81,0-1.53.17-2.16.52-.63.35-1.13.82-1.49,1.41-.36.6-.55,1.27-.55,2.03,0,.64.13,1.22.4,1.77.05.1.11.21.17.32.24.41.09.93-.29,1.21-.42.31-.77.68-1.05,1.09-.49.72-.73,1.53-.73,2.44s.21,1.64.62,2.32c.43.68,1,1.22,1.75,1.6.74.38,1.62.57,2.61.57.62,0,1.22-.08,1.78-.25.56-.17,1.07-.4,1.55-.7.26-.17.49-.34.69-.54l.91.98c.18.19.43.3.69.3h.04c.81,0,1.24-.96.69-1.56l-6.49-7.16Zm2.08,6.48c-.51.3-1.12.46-1.85.46-.58,0-1.1-.1-1.54-.31-.45-.21-.8-.5-1.05-.88-.24-.38-.37-.84-.37-1.37,0-.67.15-1.23.46-1.69.1-.14.2-.27.32-.4.37-.39,1-.38,1.36.02l3.36,3.63c-.2.2-.43.38-.7.55Z"/>
    <path class="cls-5" d="m114.37,56.05v9.95c0,.58-.47,1.05-1.05,1.05h0c-.58,0-1.05-.47-1.05-1.05v-9.8c0-.81-.21-1.46-.61-1.95-.41-.49-1-.73-1.79-.73s-1.36.24-1.77.73c-.41.49-.62,1.15-.62,1.95v4.62c0,.58-.47,1.05-1.05,1.05h0c-.58,0-1.05-.47-1.05-1.05v-4.77c0-.91.18-1.71.56-2.39.38-.68.9-1.22,1.58-1.6.67-.38,1.46-.57,2.35-.57s1.7.18,2.37.56c.67.38,1.19.91,1.56,1.6.38.69.57,1.49.57,2.39Z"/>
    <path class="cls-5" d="m125.37,53.03l-3.81,8.3c-.15.33-.48.54-.85.54h-.04c-.37,0-.7-.21-.85-.55l-3.8-8.3c-.28-.62.17-1.32.85-1.32h.26c.37,0,.71.22.86.56l2.45,5.65c.11.26.48.26.59,0l2.45-5.65c.15-.34.48-.56.86-.56h.19c.68,0,1.13.71.85,1.32Z"/>
    <path class="cls-5" d="m127.32,52.75v8.08c0,.58.47,1.04,1.04,1.04h0c.58,0,1.04-.47,1.04-1.04v-8.08c0-.58-.47-1.04-1.04-1.04h0c-.58,0-1.04.47-1.04,1.04Zm1.98-5.25c-.24-.26-.55-.39-.93-.39s-.67.13-.92.39c-.24.25-.36.57-.36.93s.12.68.36.93c.24.24.55.37.92.37s.7-.13.93-.37c.23-.25.35-.56.35-.93s-.12-.68-.35-.93Z"/>
    <path class="cls-5" d="m137.62,56.48c-.41-.22-.85-.4-1.29-.54-.45-.14-.88-.27-1.3-.39-.41-.12-.75-.27-1.01-.43-.26-.17-.4-.43-.4-.75,0-.3.14-.53.43-.7.28-.17.68-.25,1.19-.25s.97.09,1.37.28c.17.08.34.18.49.29.36.28.87.23,1.2-.09l.06-.06c.4-.39.37-1.05-.06-1.4-.26-.21-.55-.39-.86-.53-.62-.28-1.34-.43-2.13-.43s-1.42.12-1.97.37c-.55.24-.97.6-1.27,1.05-.3.46-.45,1-.45,1.63s.13,1.11.39,1.48c.25.38.58.68,1,.9.41.22.85.4,1.3.52.46.13.89.25,1.3.38.41.13.75.29,1,.48.25.2.39.46.39.8s-.15.61-.45.79c-.3.19-.73.28-1.3.28s-1.13-.1-1.61-.32c-.24-.11-.46-.24-.67-.4-.38-.29-.92-.22-1.26.12h0c-.38.38-.38,1.03.04,1.36.13.1.27.2.41.3.43.28.91.49,1.43.64.52.15,1.06.22,1.61.22,1.16,0,2.09-.28,2.78-.85.69-.56,1.03-1.34,1.03-2.3,0-.62-.13-1.14-.4-1.52-.26-.4-.6-.7-1.01-.93Z"/>
    <path class="cls-5" d="m154.78,54.08c-.47-.81-1.11-1.44-1.92-1.9-.81-.46-1.7-.69-2.69-.69s-1.9.23-2.7.7c-.81.47-1.44,1.1-1.91,1.9-.47.8-.7,1.68-.7,2.66s.24,1.9.7,2.7c.47.81,1.11,1.45,1.91,1.92.81.47,1.71.71,2.7.71s1.89-.24,2.69-.71c.81-.47,1.45-1.11,1.92-1.92.47-.81.72-1.71.72-2.7s-.24-1.87-.72-2.67Zm-1.86,4.38c-.27.51-.65.89-1.12,1.18-.47.28-1.02.43-1.63.43s-1.16-.14-1.64-.43-.85-.67-1.12-1.18c-.27-.5-.4-1.07-.4-1.71s.13-1.18.4-1.66c.27-.48.65-.87,1.12-1.15s1.02-.43,1.64-.43,1.15.14,1.62.43c.47.28.84.67,1.12,1.15.28.48.41,1.03.41,1.66s-.13,1.21-.4,1.71Z"/>
    <path class="cls-5" d="m165.51,53.66c-.38-.7-.9-1.22-1.56-1.6-.67-.38-1.46-.56-2.37-.56s-1.68.19-2.35.57c-.68.39-1.2.92-1.58,1.6-.38.68-.57,1.48-.57,2.39v4.76c0,.58.47,1.06,1.06,1.06h0c.58,0,1.06-.47,1.06-1.06v-4.61c0-.81.21-1.46.62-1.95.41-.49,1-.73,1.77-.73s1.37.24,1.78.73c.41.49.61,1.15.61,1.95v4.61c0,.58.47,1.06,1.06,1.06h0c.58,0,1.06-.47,1.06-1.06v-4.76c0-.91-.19-1.71-.57-2.39Z"/>
  </g>
  <g>
    <path class="cls-5" d="m105.58,75.74v-5.06h.5v5.06h-.5Z"/>
    <path class="cls-5" d="m108.07,75.74v-5.06h.5v5.06h-.5Z"/>
    <path class="cls-5" d="m114.15,71.12h-1.81v4.61h-.5v-4.61h-1.81v-.44h4.11v.44Z"/>
    <path class="cls-5" d="m121.95,70.68v5.06h-.49v-2.36h-3.01v2.36h-.5v-5.06h.5v2.25h3.01v-2.25h.49Z"/>
    <path class="cls-5" d="m123.97,70.68l1.66,2.72,1.67-2.72h.54l-1.96,3.18v1.88h-.5v-1.89l-1.96-3.16h.55Z"/>
    <path class="cls-5" d="m129.3,75.74v-5.06h1.72c.54,0,.99.11,1.35.34.36.23.63.53.81.91.18.38.27.81.27,1.27,0,.51-.1.96-.3,1.34-.2.38-.48.67-.84.88-.36.21-.79.31-1.29.31h-1.72Zm3.65-2.53c0-.4-.07-.76-.22-1.07-.15-.31-.37-.56-.65-.74-.29-.18-.64-.27-1.05-.27h-1.22v4.17h1.22c.42,0,.77-.09,1.06-.28.29-.19.5-.44.65-.75.15-.32.22-.67.22-1.06Z"/>
    <path class="cls-5" d="m138.53,75.29v.44h-3.41v-5.06h3.34v.44h-2.84v1.82h2.48v.42h-2.48v1.93h2.91Z"/>
    <path class="cls-5" d="m140.18,75.74v-5.06h2.14c.22,0,.42.05.6.14.18.09.34.21.47.37.14.15.24.33.31.51.07.19.11.38.11.57,0,.24-.05.47-.14.68-.09.21-.22.39-.39.54-.17.15-.37.24-.6.29l1.24,1.95h-.56l-1.19-1.87h-1.5v1.87h-.5Zm.5-2.31h1.66c.2,0,.37-.05.52-.16.15-.11.26-.25.34-.43.08-.18.12-.37.12-.57s-.05-.39-.14-.57c-.09-.17-.22-.31-.37-.42-.15-.11-.33-.16-.52-.16h-1.61v2.31Z"/>
    <path class="cls-5" d="m147.05,70.68h.42l2.11,5.06h-.53l-.63-1.58h-2.32l-.63,1.58h-.54l2.12-5.06Zm1.21,3.08l-1-2.5-1,2.5h2Z"/>
    <path class="cls-5" d="m154.84,74.43c0,.25-.06.48-.19.67-.13.2-.3.35-.52.46-.22.11-.45.17-.71.17h-2.39v-5.06h2.44c.24,0,.44.06.62.19.17.13.31.29.4.48.09.2.14.4.14.62,0,.25-.06.48-.19.7-.13.21-.31.37-.54.48.29.09.52.24.69.48.17.23.25.5.25.81Zm-3.31-3.32v1.87h1.74c.17,0,.31-.04.44-.13.13-.09.23-.2.31-.35.08-.14.11-.29.11-.46,0-.17-.04-.33-.11-.47s-.17-.25-.29-.34c-.12-.09-.26-.13-.42-.13h-1.78Zm2.81,3.23c0-.17-.04-.33-.11-.47-.08-.14-.18-.26-.31-.35-.13-.09-.28-.14-.45-.14h-1.94v1.92h1.89c.17,0,.33-.05.46-.14.14-.09.25-.21.33-.35.08-.14.13-.3.13-.47Z"/>
    <path class="cls-5" d="m157.96,70.68h.42l2.11,5.06h-.53l-.63-1.58h-2.32l-.63,1.58h-.54l2.12-5.06Zm1.21,3.08l-1-2.5-1,2.5h2Z"/>
    <path class="cls-5" d="m161.93,75.74v-5.06h1.72c.54,0,.99.11,1.35.34.36.23.63.53.81.91.18.38.27.81.27,1.27,0,.51-.1.96-.3,1.34-.2.38-.48.67-.84.88-.36.21-.79.31-1.29.31h-1.72Zm3.65-2.53c0-.4-.07-.76-.22-1.07-.15-.31-.37-.56-.65-.74-.29-.18-.64-.27-1.05-.27h-1.22v4.17h1.22c.42,0,.77-.09,1.06-.28.29-.19.5-.44.65-.75.15-.32.22-.67.22-1.06Z"/>
  </g>
</svg>